<svg width="460" height="116" viewBox="0 0 460 116" fill="none" xmlns="http://www.w3.org/2000/svg">
<g filter="url(#filter0_d)">
<path fill-rule="evenodd" clip-rule="evenodd" d="M6 0C2.68629 0 0 2.68629 0 6V106C0 109.314 2.68629 112 6 112H450C453.314 112 456 109.314 456 106V6C456 2.68629 453.314 0 450 0H6Z" transform="translate(2 2)" fill="white"/>
</g>
<path fill-rule="evenodd" clip-rule="evenodd" d="M24 12C24 18.6275 18.6275 24 12 24C5.37264 24 1.68228e-09 18.6275 1.68228e-09 12C1.68228e-09 5.37252 5.37264 -1.60217e-10 12 -1.60217e-10C18.6275 -1.60217e-10 24 5.37252 24 12Z" transform="translate(18 18)" fill="#497391"/>
<path fill-rule="evenodd" clip-rule="evenodd" d="M2.23389e-07 10.6024L5.14704 4.76074e-08V13.3117L2.23389e-07 10.6024Z" transform="translate(24.687 20.8845)" fill="white" stroke="#497391" stroke-width="0.25"/>
<path fill-rule="evenodd" clip-rule="evenodd" d="M5.16528 10.606L-3.06152e-07 13.3153V-3.479e-08L5.16528 10.606Z" transform="translate(30.1479 20.8809)" fill="white" stroke="#497391" stroke-width="0.25"/>
<path fill-rule="evenodd" clip-rule="evenodd" d="M2.23389e-07 3.95508e-07L5.14704 2.57712V6.7212L2.23389e-07 3.95508e-07Z" transform="translate(24.687 31.8748)" fill="white" stroke="#497391" stroke-width="0.25"/>
<path fill-rule="evenodd" clip-rule="evenodd" d="M5.16528 3.95508e-07L-3.06152e-07 6.7212V2.57712L5.16528 3.95508e-07Z" transform="translate(30.1479 31.8748)" fill="white" stroke="#497391" stroke-width="0.25"/>
<path d="M7.44141 16H1.45752V5.29199H7.44141V6.47852H2.80518V9.81836H7.17041V10.9902H2.80518V14.8135H7.44141V16ZM12.312 15.0698C12.4829 15.0698 12.6831 15.0527 12.9126 15.0186C13.1421 14.9844 13.3154 14.9453 13.4326 14.9014V15.9121C13.3105 15.9658 13.1201 16.0171 12.8613 16.0659C12.6074 16.1196 12.3486 16.1465 12.085 16.1465C10.5127 16.1465 9.72656 15.3188 9.72656 13.6636V8.9834H8.59131V8.35352L9.74121 7.82617L10.2686 6.1123H11.0522V7.95801H13.374V8.9834H11.0522V13.627C11.0522 14.0908 11.1621 14.4473 11.3818 14.6963C11.6064 14.9453 11.9165 15.0698 12.312 15.0698ZM20.5225 16V10.8584C20.5225 10.2041 20.376 9.71826 20.083 9.40088C19.7949 9.07861 19.3408 8.91748 18.7207 8.91748C17.9053 8.91748 17.3071 9.14453 16.9263 9.59863C16.5503 10.0527 16.3623 10.8022 16.3623 11.8472V16H15.0439V4.60352H16.3623V7.94336C16.3623 8.38281 16.3379 8.75879 16.2891 9.07129H16.377C16.6162 8.68066 16.9556 8.37549 17.395 8.15576C17.8345 7.93604 18.3301 7.82617 18.8818 7.82617C19.8584 7.82617 20.5933 8.06055 21.0864 8.5293C21.5796 8.99316 21.8262 9.73779 21.8262 10.7632V16H20.5225ZM27.7368 16.1465C26.5308 16.1465 25.5835 15.7827 24.895 15.0552C24.2114 14.3228 23.8696 13.3169 23.8696 12.0376C23.8696 10.7485 24.1895 9.72314 24.8291 8.96143C25.4688 8.19482 26.333 7.81152 27.4219 7.81152C28.4326 7.81152 29.2383 8.13867 29.8389 8.79297C30.4395 9.44238 30.7397 10.3237 30.7397 11.437V12.2354H25.2319C25.2563 13.1484 25.4883 13.8418 25.9277 14.3154C26.3672 14.7891 26.9897 15.0259 27.7954 15.0259C28.2251 15.0259 28.6328 14.9893 29.0186 14.916C29.4043 14.8379 29.856 14.689 30.3735 14.4692V15.6265C29.9292 15.8169 29.5117 15.9512 29.1211 16.0293C28.7305 16.1074 28.269 16.1465 27.7368 16.1465ZM27.4072 8.88818C26.7773 8.88818 26.2793 9.09082 25.9131 9.49609C25.5469 9.90137 25.3296 10.4653 25.2612 11.188H29.3555C29.3457 10.436 29.1724 9.86475 28.8354 9.47412C28.4985 9.0835 28.0225 8.88818 27.4072 8.88818ZM36.5332 7.81152C36.8896 7.81152 37.2046 7.84082 37.478 7.89941L37.3169 9.11523C37.019 9.04688 36.7285 9.0127 36.4453 9.0127C36.0205 9.0127 35.625 9.12988 35.2588 9.36426C34.8975 9.59863 34.6143 9.92334 34.4092 10.3384C34.2041 10.7485 34.1016 11.2051 34.1016 11.708V16H32.7832V7.95801H33.8672L34.0137 9.43018H34.0723C34.3799 8.89795 34.7437 8.49512 35.1636 8.22168C35.5835 7.94824 36.04 7.81152 36.5332 7.81152ZM42.2534 16.1465C41.0474 16.1465 40.1001 15.7827 39.4116 15.0552C38.728 14.3228 38.3862 13.3169 38.3862 12.0376C38.3862 10.7485 38.7061 9.72314 39.3457 8.96143C39.9854 8.19482 40.8496 7.81152 41.9385 7.81152C42.9492 7.81152 43.7549 8.13867 44.3555 8.79297C44.9561 9.44238 45.2563 10.3237 45.2563 11.437V12.2354H39.7485C39.7729 13.1484 40.0049 13.8418 40.4443 14.3154C40.8838 14.7891 41.5063 15.0259 42.312 15.0259C42.7417 15.0259 43.1494 14.9893 43.5352 14.916C43.9209 14.8379 44.3726 14.689 44.8901 14.4692V15.6265C44.4458 15.8169 44.0283 15.9512 43.6377 16.0293C43.2471 16.1074 42.7856 16.1465 42.2534 16.1465ZM41.9238 8.88818C41.2939 8.88818 40.7959 9.09082 40.4297 9.49609C40.0635 9.90137 39.8462 10.4653 39.7778 11.188H43.8721C43.8623 10.436 43.689 9.86475 43.3521 9.47412C43.0151 9.0835 42.5391 8.88818 41.9238 8.88818ZM48.5449 7.95801V13.1362C48.5449 13.7856 48.689 14.269 48.9771 14.5864C49.27 14.8989 49.7217 15.0552 50.332 15.0552C51.1572 15.0552 51.7578 14.8257 52.1338 14.3667C52.5098 13.9077 52.6978 13.168 52.6978 12.1475V7.95801H54.0234V16H52.9395L52.749 14.938H52.6831C52.4438 15.3237 52.1045 15.6216 51.665 15.8315C51.2256 16.0415 50.7153 16.1465 50.1343 16.1465C49.1675 16.1465 48.4375 15.9146 47.9443 15.4507C47.4561 14.9868 47.2119 14.2446 47.2119 13.2241V7.95801H48.5449ZM66.8042 16V10.8218C66.8042 9.55225 66.2598 8.91748 65.1709 8.91748C64.4238 8.91748 63.8745 9.13477 63.5229 9.56934C63.1714 10.0039 62.9956 10.668 62.9956 11.5615V16H61.6846V10.8218C61.6846 10.187 61.5503 9.71094 61.2817 9.39355C61.0181 9.07617 60.603 8.91748 60.0366 8.91748C59.2944 8.91748 58.75 9.14453 58.4033 9.59863C58.0615 10.0527 57.8906 10.7974 57.8906 11.8325V16H56.5723V7.95801H57.6343L57.832 9.05664H57.9053C58.1348 8.66602 58.457 8.36084 58.8721 8.14111C59.292 7.92139 59.7607 7.81152 60.2783 7.81152C61.5381 7.81152 62.3584 8.26074 62.7393 9.15918H62.8125C63.0713 8.72949 63.4229 8.39746 63.8672 8.16309C64.3164 7.92871 64.8242 7.81152 65.3906 7.81152C66.2988 7.81152 66.9775 8.0459 67.4268 8.51465C67.8809 8.9834 68.1079 9.73291 68.1079 10.7632V16H66.8042Z" transform="translate(58 19)" fill="black"/>
<path d="M6.31006 16H4.04688V9.80371C4.04688 9.67676 4.04688 9.52539 4.04688 9.34961C4.05176 9.16895 4.05664 8.9834 4.06152 8.79297C4.07129 8.59766 4.07861 8.40234 4.0835 8.20703C4.09326 8.01172 4.10059 7.8335 4.10547 7.67236C4.08105 7.70166 4.03955 7.74561 3.98096 7.8042C3.92236 7.86279 3.85645 7.92871 3.7832 8.00195C3.70996 8.07031 3.63428 8.14111 3.55615 8.21436C3.47803 8.2876 3.40234 8.35352 3.3291 8.41211L2.09863 9.40088L1 8.03857L4.44971 5.29199H6.31006V16ZM11.8398 13.8906L11.9497 14.0664C11.8813 14.3496 11.7983 14.6499 11.7007 14.9673C11.6079 15.2798 11.5029 15.5972 11.3857 15.9194C11.2734 16.2368 11.1538 16.5542 11.0269 16.8716C10.9048 17.1938 10.7827 17.499 10.6606 17.7871H9.04932C9.12256 17.4697 9.19336 17.1401 9.26172 16.7983C9.33496 16.4565 9.40332 16.1172 9.4668 15.7803C9.53516 15.4434 9.59619 15.1138 9.6499 14.7915C9.70361 14.4644 9.74756 14.1641 9.78174 13.8906H11.8398ZM20.7388 10.646C20.7388 11.5103 20.6704 12.2817 20.5337 12.9604C20.4019 13.6392 20.187 14.2153 19.8892 14.689C19.5962 15.1626 19.2153 15.5239 18.7466 15.7729C18.2827 16.022 17.7212 16.1465 17.062 16.1465C16.4419 16.1465 15.9023 16.022 15.4434 15.7729C14.9844 15.5239 14.6035 15.1626 14.3008 14.689C13.998 14.2153 13.771 13.6392 13.6196 12.9604C13.4731 12.2817 13.3999 11.5103 13.3999 10.646C13.3999 9.78174 13.4658 9.00781 13.5977 8.32422C13.7344 7.64063 13.9492 7.06201 14.2422 6.58838C14.5352 6.11475 14.9136 5.75342 15.3774 5.50439C15.8413 5.25049 16.4028 5.12354 17.062 5.12354C17.6772 5.12354 18.2144 5.24805 18.6733 5.49707C19.1323 5.74609 19.5156 6.10742 19.8232 6.58105C20.1309 7.05469 20.3604 7.6333 20.5117 8.31689C20.6631 9.00049 20.7388 9.77686 20.7388 10.646ZM15.6558 10.646C15.6558 11.8667 15.7607 12.7847 15.9707 13.3999C16.1807 14.0151 16.5444 14.3228 17.062 14.3228C17.5698 14.3228 17.9336 14.0176 18.1533 13.4072C18.3779 12.7969 18.4902 11.8765 18.4902 10.646C18.4902 9.42041 18.3779 8.5 18.1533 7.88477C17.9336 7.26465 17.5698 6.95459 17.062 6.95459C16.8032 6.95459 16.5835 7.03271 16.4028 7.18896C16.2271 7.34521 16.083 7.57715 15.9707 7.88477C15.8584 8.19238 15.7778 8.57812 15.729 9.04199C15.6802 9.50098 15.6558 10.0356 15.6558 10.646ZM29.0005 10.646C29.0005 11.5103 28.9321 12.2817 28.7954 12.9604C28.6636 13.6392 28.4487 14.2153 28.1509 14.689C27.8579 15.1626 27.4771 15.5239 27.0083 15.7729C26.5444 16.022 25.9829 16.1465 25.3237 16.1465C24.7036 16.1465 24.1641 16.022 23.7051 15.7729C23.2461 15.5239 22.8652 15.1626 22.5625 14.689C22.2598 14.2153 22.0327 13.6392 21.8813 12.9604C21.7349 12.2817 21.6616 11.5103 21.6616 10.646C21.6616 9.78174 21.7275 9.00781 21.8594 8.32422C21.9961 7.64063 22.2109 7.06201 22.5039 6.58838C22.7969 6.11475 23.1753 5.75342 23.6392 5.50439C24.103 5.25049 24.6646 5.12354 25.3237 5.12354C25.939 5.12354 26.4761 5.24805 26.9351 5.49707C27.394 5.74609 27.7773 6.10742 28.085 6.58105C28.3926 7.05469 28.6221 7.6333 28.7734 8.31689C28.9248 9.00049 29.0005 9.77686 29.0005 10.646ZM23.9175 10.646C23.9175 11.8667 24.0225 12.7847 24.2324 13.3999C24.4424 14.0151 24.8062 14.3228 25.3237 14.3228C25.8315 14.3228 26.1953 14.0176 26.415 13.4072C26.6396 12.7969 26.752 11.8765 26.752 10.646C26.752 9.42041 26.6396 8.5 26.415 7.88477C26.1953 7.26465 25.8315 6.95459 25.3237 6.95459C25.0649 6.95459 24.8452 7.03271 24.6646 7.18896C24.4888 7.34521 24.3447 7.57715 24.2324 7.88477C24.1201 8.19238 24.0396 8.57812 23.9907 9.04199C23.9419 9.50098 23.9175 10.0356 23.9175 10.646ZM35.4458 16H33.1826V9.80371C33.1826 9.67676 33.1826 9.52539 33.1826 9.34961C33.1875 9.16895 33.1924 8.9834 33.1973 8.79297C33.207 8.59766 33.2144 8.40234 33.2192 8.20703C33.229 8.01172 33.2363 7.8335 33.2412 7.67236C33.2168 7.70166 33.1753 7.74561 33.1167 7.8042C33.0581 7.86279 32.9922 7.92871 32.9189 8.00195C32.8457 8.07031 32.77 8.14111 32.6919 8.21436C32.6138 8.2876 32.5381 8.35352 32.4648 8.41211L31.2344 9.40088L30.1357 8.03857L33.5854 5.29199H35.4458V16ZM38.5806 14.9526C38.5806 14.7231 38.6123 14.5303 38.6758 14.374C38.7441 14.2129 38.8369 14.0835 38.9541 13.9858C39.0713 13.8882 39.208 13.8174 39.3643 13.7734C39.5205 13.7295 39.689 13.7075 39.8696 13.7075C40.0405 13.7075 40.2017 13.7295 40.353 13.7734C40.5093 13.8174 40.646 13.8882 40.7632 13.9858C40.8804 14.0835 40.9731 14.2129 41.0415 14.374C41.1099 14.5303 41.144 14.7231 41.144 14.9526C41.144 15.1724 41.1099 15.3604 41.0415 15.5166C40.9731 15.6729 40.8804 15.8022 40.7632 15.9048C40.646 16.0073 40.5093 16.0806 40.353 16.1245C40.2017 16.1733 40.0405 16.1978 39.8696 16.1978C39.689 16.1978 39.5205 16.1733 39.3643 16.1245C39.208 16.0806 39.0713 16.0073 38.9541 15.9048C38.8369 15.8022 38.7441 15.6729 38.6758 15.5166C38.6123 15.3604 38.5806 15.1724 38.5806 14.9526ZM49.8013 10.646C49.8013 11.5103 49.7329 12.2817 49.5962 12.9604C49.4644 13.6392 49.2495 14.2153 48.9517 14.689C48.6587 15.1626 48.2778 15.5239 47.8091 15.7729C47.3452 16.022 46.7837 16.1465 46.1245 16.1465C45.5044 16.1465 44.9648 16.022 44.5059 15.7729C44.0469 15.5239 43.666 15.1626 43.3633 14.689C43.0605 14.2153 42.8335 13.6392 42.6821 12.9604C42.5356 12.2817 42.4624 11.5103 42.4624 10.646C42.4624 9.78174 42.5283 9.00781 42.6602 8.32422C42.7969 7.64063 43.0117 7.06201 43.3047 6.58838C43.5977 6.11475 43.9761 5.75342 44.4399 5.50439C44.9038 5.25049 45.4653 5.12354 46.1245 5.12354C46.7397 5.12354 47.2769 5.24805 47.7358 5.49707C48.1948 5.74609 48.5781 6.10742 48.8857 6.58105C49.1934 7.05469 49.4229 7.6333 49.5742 8.31689C49.7256 9.00049 49.8013 9.77686 49.8013 10.646ZM44.7183 10.646C44.7183 11.8667 44.8232 12.7847 45.0332 13.3999C45.2432 14.0151 45.6069 14.3228 46.1245 14.3228C46.6323 14.3228 46.9961 14.0176 47.2158 13.4072C47.4404 12.7969 47.5527 11.8765 47.5527 10.646C47.5527 9.42041 47.4404 8.5 47.2158 7.88477C46.9961 7.26465 46.6323 6.95459 46.1245 6.95459C45.8657 6.95459 45.646 7.03271 45.4653 7.18896C45.2896 7.34521 45.1455 7.57715 45.0332 7.88477C44.9209 8.19238 44.8403 8.57812 44.7915 9.04199C44.7427 9.50098 44.7183 10.0356 44.7183 10.646ZM56.2466 16H53.9834V9.80371C53.9834 9.67676 53.9834 9.52539 53.9834 9.34961C53.9883 9.16895 53.9932 8.9834 53.998 8.79297C54.0078 8.59766 54.0151 8.40234 54.02 8.20703C54.0298 8.01172 54.0371 7.8335 54.042 7.67236C54.0176 7.70166 53.9761 7.74561 53.9175 7.8042C53.8589 7.86279 53.793 7.92871 53.7197 8.00195C53.6465 8.07031 53.5708 8.14111 53.4927 8.21436C53.4146 8.2876 53.3389 8.35352 53.2656 8.41211L52.0352 9.40088L50.9365 8.03857L54.3862 5.29199H56.2466V16ZM69.9355 16H63.7686V5.29199H69.9355V7.15234H66.0391V9.50342H69.6646V11.3638H66.0391V14.125H69.9355V16ZM76.3076 16H74.0371V7.18164H71.1294V5.29199H79.2153V7.18164H76.3076V16ZM89.6377 16H87.3745V11.3784H83.1338V16H80.8633V5.29199H83.1338V9.48877H87.3745V5.29199H89.6377V16Z" transform="translate(351 19)" fill="black"/>
<rect width="1" height="456" transform="translate(2 58) rotate(-90)" fill="#EFEFEF"/>
<path d="M0 16.3751C4.52186 16.3751 8.18755 12.7094 8.18755 8.18755C8.18755 3.66569 4.52186 0 0 0" transform="translate(157.369 90.2104) rotate(135)" stroke="#8A8A8F" stroke-width="2" stroke-linecap="round" stroke-linejoin="round"/>
<path d="M3.72161 0V9.6762M3.72161 9.6762L0 5.95458M3.72161 9.6762L7.44323 5.95458" transform="translate(147.895 82.842) scale(1 -1) rotate(-45)" stroke="#FF3B30" stroke-width="2" stroke-linecap="round" stroke-linejoin="round"/>
<path d="M9.42188 15H7.35352L6.19336 10.5C6.15039 10.3398 6.07617 10.0098 5.9707 9.50977C5.86914 9.00586 5.81055 8.66797 5.79492 8.49609C5.77148 8.70703 5.71289 9.04688 5.61914 9.51562C5.52539 9.98047 5.45312 10.3125 5.40234 10.5117L4.24805 15H2.18555L0 6.43359H1.78711L2.88281 11.1094C3.07422 11.9727 3.21289 12.7207 3.29883 13.3535C3.32227 13.1309 3.375 12.7871 3.45703 12.3223C3.54297 11.8535 3.62305 11.4902 3.69727 11.2324L4.94531 6.43359H6.66211L7.91016 11.2324C7.96484 11.4473 8.0332 11.7754 8.11523 12.2168C8.19727 12.6582 8.25977 13.0371 8.30273 13.3535C8.3418 13.0488 8.4043 12.6699 8.49023 12.2168C8.57617 11.7598 8.6543 11.3906 8.72461 11.1094L9.81445 6.43359H11.6016L9.42188 15ZM16.2448 15H12.3483V13.9688L13.3912 13.4883V7.94531L12.3483 7.46484V6.43359H16.2448V7.46484L15.2018 7.94531V13.4883L16.2448 13.9688V15ZM21.3802 15H19.5637V7.94531H17.2376V6.43359H23.7063V7.94531H21.3802V15ZM32.4042 15H30.5937V11.3027H27.2011V15H25.3847V6.43359H27.2011V9.79102H30.5937V6.43359H32.4042V15ZM42.0396 10.6348C42.0396 12.0449 41.6373 13.125 40.8326 13.875C40.0318 14.625 38.8736 15 37.358 15H34.9322V6.43359H37.6216C39.0201 6.43359 40.106 6.80273 40.8795 7.54102C41.6529 8.2793 42.0396 9.31055 42.0396 10.6348ZM40.1529 10.6816C40.1529 8.8418 39.3404 7.92188 37.7154 7.92188H36.7486V13.5H37.5279C39.2779 13.5 40.1529 12.5605 40.1529 10.6816ZM45.9914 10.2363H46.5773C47.1516 10.2363 47.5754 10.1406 47.8488 9.94922C48.1223 9.75781 48.259 9.45703 48.259 9.04688C48.259 8.64062 48.1184 8.35156 47.8371 8.17969C47.5598 8.00781 47.1281 7.92188 46.5422 7.92188H45.9914V10.2363ZM45.9914 11.7129V15H44.175V6.43359H46.6711C47.8352 6.43359 48.6965 6.64648 49.2551 7.07227C49.8137 7.49414 50.093 8.13672 50.093 9C50.093 9.50391 49.9543 9.95312 49.677 10.3477C49.3996 10.7383 49.007 11.0449 48.4992 11.2676L51.0187 15H49.0031L46.9582 11.7129H45.9914ZM57.701 15L57.0799 12.9609H53.9569L53.3358 15H51.3787L54.4022 6.39844H56.6229L59.658 15H57.701ZM56.6463 11.4375C56.0721 9.58984 55.7479 8.54492 55.6737 8.30273C55.6034 8.06055 55.5526 7.86914 55.5213 7.72852C55.3924 8.22852 55.0233 9.46484 54.4139 11.4375H56.6463ZM69.2114 15H67.143L65.9829 10.5C65.9399 10.3398 65.8657 10.0098 65.7602 9.50977C65.6587 9.00586 65.6001 8.66797 65.5844 8.49609C65.561 8.70703 65.5024 9.04688 65.4087 9.51562C65.3149 9.98047 65.2427 10.3125 65.1919 10.5117L64.0376 15H61.9751L59.7895 6.43359H61.5766L62.6723 11.1094C62.8637 11.9727 63.0024 12.7207 63.0884 13.3535C63.1118 13.1309 63.1645 12.7871 63.2466 12.3223C63.3325 11.8535 63.4126 11.4902 63.4868 11.2324L64.7348 6.43359H66.4516L67.6997 11.2324C67.7544 11.4473 67.8227 11.7754 67.9048 12.2168C67.9868 12.6582 68.0493 13.0371 68.0923 13.3535C68.1313 13.0488 68.1938 12.6699 68.2798 12.2168C68.3657 11.7598 68.4438 11.3906 68.5141 11.1094L69.604 6.43359H71.3911L69.2114 15Z" transform="translate(170 75)" fill="#0DA9FF"/>
<path fill-rule="evenodd" clip-rule="evenodd" d="M0 4C0 1.79086 1.79086 0 4 0H108C110.209 0 112 1.79086 112 4V36C112 38.2091 110.209 40 108 40H4C1.79086 40 0 38.2091 0 36V4Z" transform="translate(10 66)" fill="white"/>
<path d="M0 16.3751C4.52186 16.3751 8.18755 12.7094 8.18755 8.18755C8.18755 3.66569 4.52186 0 0 0" transform="translate(37.3687 90.2104) rotate(135)" stroke="#8A8A8F" stroke-width="2" stroke-linecap="round" stroke-linejoin="round"/>
<path d="M3.72161 0V9.6762M3.72161 9.6762L0 5.95458M3.72161 9.6762L7.44323 5.95458" transform="translate(34.7368 76) rotate(45)" stroke="#4CD964" stroke-width="2" stroke-linecap="round" stroke-linejoin="round"/>
<path d="M8.4607 10.6348C8.4607 12.0449 8.05836 13.125 7.25367 13.875C6.45289 14.625 5.29469 15 3.77906 15H1.35328V6.43359H4.04273C5.44117 6.43359 6.52711 6.80273 7.30055 7.54102C8.07398 8.2793 8.4607 9.31055 8.4607 10.6348ZM6.57398 10.6816C6.57398 8.8418 5.76148 7.92188 4.13648 7.92188H3.16969V13.5H3.94898C5.69898 13.5 6.57398 12.5605 6.57398 10.6816ZM15.5297 15H10.5961V6.43359H15.5297V7.92188H12.4125V9.80273H15.3129V11.291H12.4125V13.5H15.5297V15ZM19.4991 10.4648H20.0967C20.6553 10.4648 21.0733 10.3555 21.3506 10.1367C21.628 9.91406 21.7666 9.5918 21.7666 9.16992C21.7666 8.74414 21.6495 8.42969 21.4151 8.22656C21.1846 8.02344 20.8213 7.92188 20.3252 7.92188H19.4991V10.4648ZM23.6006 9.10547C23.6006 10.0273 23.3116 10.7324 22.7334 11.2207C22.1592 11.709 21.3409 11.9531 20.2784 11.9531H19.4991V15H17.6827V6.43359H20.419C21.458 6.43359 22.2471 6.6582 22.7862 7.10742C23.3291 7.55273 23.6006 8.21875 23.6006 9.10547ZM33.3532 10.7051C33.3532 12.123 33.0016 13.2129 32.2985 13.9746C31.5954 14.7363 30.5876 15.1172 29.2751 15.1172C27.9626 15.1172 26.9548 14.7363 26.2516 13.9746C25.5485 13.2129 25.197 12.1191 25.197 10.6934C25.197 9.26758 25.5485 8.17969 26.2516 7.42969C26.9587 6.67578 27.9704 6.29883 29.2868 6.29883C30.6032 6.29883 31.6091 6.67773 32.3044 7.43555C33.0036 8.19336 33.3532 9.2832 33.3532 10.7051ZM27.1012 10.7051C27.1012 11.6621 27.2829 12.3828 27.6462 12.8672C28.0095 13.3516 28.5524 13.5938 29.2751 13.5938C30.7243 13.5938 31.4489 12.6309 31.4489 10.7051C31.4489 8.77539 30.7282 7.81055 29.2868 7.81055C28.5641 7.81055 28.0192 8.05469 27.652 8.54297C27.2848 9.02734 27.1012 9.74805 27.1012 10.7051ZM40.5452 12.6211C40.5452 13.3945 40.2659 14.0039 39.7073 14.4492C39.1527 14.8945 38.3792 15.1172 37.387 15.1172C36.473 15.1172 35.6644 14.9453 34.9613 14.6016V12.9141C35.5394 13.1719 36.0277 13.3535 36.4261 13.459C36.8284 13.5645 37.1956 13.6172 37.5277 13.6172C37.9261 13.6172 38.2308 13.541 38.4417 13.3887C38.6566 13.2363 38.764 13.0098 38.764 12.709C38.764 12.541 38.7171 12.3926 38.6234 12.2637C38.5296 12.1309 38.3909 12.0039 38.2073 11.8828C38.0277 11.7617 37.6585 11.5684 37.0999 11.3027C36.5765 11.0566 36.1839 10.8203 35.9222 10.5938C35.6605 10.3672 35.4515 10.1035 35.2952 9.80273C35.139 9.50195 35.0609 9.15039 35.0609 8.74805C35.0609 7.99023 35.3167 7.39453 35.8284 6.96094C36.3441 6.52734 37.055 6.31055 37.9613 6.31055C38.4066 6.31055 38.8304 6.36328 39.2327 6.46875C39.639 6.57422 40.0628 6.72266 40.5042 6.91406L39.9183 8.32617C39.4613 8.13867 39.0823 8.00781 38.7816 7.93359C38.4847 7.85938 38.1917 7.82227 37.9027 7.82227C37.5589 7.82227 37.2952 7.90234 37.1116 8.0625C36.928 8.22266 36.8363 8.43164 36.8363 8.68945C36.8363 8.84961 36.8734 8.99023 36.9476 9.11133C37.0218 9.22852 37.139 9.34375 37.2991 9.45703C37.4632 9.56641 37.848 9.76562 38.4534 10.0547C39.2542 10.4375 39.803 10.8223 40.0999 11.209C40.3968 11.5918 40.5452 12.0625 40.5452 12.6211ZM45.663 15H41.7666V13.9688L42.8095 13.4883V7.94531L41.7666 7.46484V6.43359H45.663V7.46484L44.6201 7.94531V13.4883L45.663 13.9688V15ZM50.7984 15H48.982V7.94531H46.6559V6.43359H53.1246V7.94531H50.7984V15Z" transform="translate(51 75)" fill="#0DA9FF"/>
<defs>
<filter id="filter0_d" x="0" y="0" width="460" height="116" filterUnits="userSpaceOnUse" color-interpolation-filters="sRGB">
<feFlood flood-opacity="0" result="BackgroundImageFix"/>
<feColorMatrix in="SourceAlpha" type="matrix" values="0 0 0 0 0 0 0 0 0 0 0 0 0 0 0 0 0 0 255 0"/>
<feOffset/>
<feGaussianBlur stdDeviation="1"/>
<feColorMatrix type="matrix" values="0 0 0 0 0 0 0 0 0 0 0 0 0 0 0 0 0 0 0.12 0"/>
<feBlend mode="normal" in2="BackgroundImageFix" result="effect1_dropShadow"/>
<feBlend mode="normal" in="SourceGraphic" in2="effect1_dropShadow" result="shape"/>
</filter>
</defs>
</svg>
